<?xml version="1.0" encoding="UTF-8"?>
<svg version="1.1" xmlns="http://www.w3.org/2000/svg" width="150" height="150">
<path d="M0 0 C49.5 0 99 0 150 0 C150 12.54 150 25.08 150 38 C100.5 38 51 38 0 38 C0 25.46 0 12.92 0 0 Z " fill="#F8F8F8" transform="translate(0,54)"/>
<path d="M0 0 C0.66 0 1.32 0 2 0 C2 7.26 2 14.52 2 22 C-8 23 -8 23 -10.625 20.9375 C-12.2211138 17.52762051 -12.61936801 15.71620804 -12 12 C-10.375 9.125 -10.375 9.125 -8 7 C-4.8125 6.625 -4.8125 6.625 -2 7 C-1.67 7.33 -1.34 7.66 -1 8 C-0.67 5.36 -0.34 2.72 0 0 Z " fill="#212123" transform="translate(100,62)"/>
<path d="M0 0 C2.4178712 -0.10826289 4.83087556 -0.18739789 7.25 -0.25 C8.27287109 -0.30027344 8.27287109 -0.30027344 9.31640625 -0.3515625 C12.73573004 -0.41795714 14.64279388 -0.25750744 17.44921875 1.765625 C19.52348718 4.75424349 19.6546513 6.54726183 19.4296875 10.09375 C19 12 19 12 17.1875 14.5 C12.49964664 16.70604864 8.09556265 16.32126139 3 16 C3 18.64 3 21.28 3 24 C1.68 24 0.36 24 -1 24 C-1 20.04 -1 16.08 -1 12 C3.95 12 8.9 12 14 12 C14 10.02 14 8.04 14 6 C12.01991946 4.01991946 8.13233154 4.68780993 5.4453125 4.57421875 C3 4 3 4 1.1796875 1.95703125 C0.59574219 0.98830078 0.59574219 0.98830078 0 0 Z " fill="#151516" transform="translate(129,60)"/>
<path d="M0 0 C1.89551022 -0.05441656 3.7914792 -0.09298035 5.6875 -0.125 C6.74324219 -0.14820313 7.79898438 -0.17140625 8.88671875 -0.1953125 C12.05420487 0.00340056 14.17781882 0.58136347 17 2 C18.99442942 4.53836472 19.0112263 5.81663715 18.8125 9.0625 C17.9687372 12.11302704 17.30491635 12.98319819 15 15 C14.67 15.99 14.34 16.98 14 18 C14.66 18 15.32 18 16 18 C16.66 19.98 17.32 21.96 18 24 C16.35 24 14.7 24 13 24 C12.16180842 22.37750059 11.3295884 20.75191503 10.5 19.125 C10.0359375 18.22007813 9.571875 17.31515625 9.09375 16.3828125 C8 14 8 14 8 12 C9.65 11.67 11.3 11.34 13 11 C13.042721 9.33388095 13.04063832 7.66617115 13 6 C11.00812602 4.00812602 7.0505273 4.68700042 4.34765625 4.57421875 C2 4 2 4 0.68359375 1.95703125 C0.45800781 1.31121094 0.23242188 0.66539063 0 0 Z " fill="#171718" transform="translate(105,60)"/>
<path d="M0 0 C3.65930734 0.68612013 4.86907223 1.53002586 7 4.5625 C7 6.2125 7 7.8625 7 9.5625 C3.7 9.5625 0.4 9.5625 -3 9.5625 C-3 10.8825 -3 12.2025 -3 13.5625 C-0.36 13.5625 2.28 13.5625 5 13.5625 C5 14.2225 5 14.8825 5 15.5625 C2.12529507 16.99985246 0.18105412 16.94422649 -3 16.5625 C-5.86795763 13.99643265 -6.86671285 12.36222291 -7.5 8.5625 C-6.68932657 3.69845941 -4.98257561 0.93423293 0 0 Z " fill="#151516" transform="translate(79,68.4375)"/>
<path d="M0 0 C6.625 -0.25 6.625 -0.25 10 2 C10.29296875 5.0390625 10.29296875 5.0390625 10.1875 8.625 C10.16042969 9.81351563 10.13335937 11.00203125 10.10546875 12.2265625 C10.07066406 13.14179687 10.03585938 14.05703125 10 15 C8.39884424 15.2493357 6.79379841 15.47378648 5.1875 15.6875 C4.29417969 15.81511719 3.40085937 15.94273438 2.48046875 16.07421875 C0 16 0 16 -1.83203125 14.6796875 C-3 13 -3 13 -2.875 10.4375 C-2 8 -2 8 1 6 C4.1875 5.875 4.1875 5.875 7 6 C6.67 5.01 6.34 4.02 6 3 C3.69 3 1.38 3 -1 3 C-0.67 2.01 -0.34 1.02 0 0 Z " fill="#2F2F30" transform="translate(49,69)"/>
<path d="M0 0 C1 1 1 1 1.25 4.375 C1 8 1 8 -0.1875 10 C-2 11 -2 11 -4.5625 10.875 C-7 10 -7 10 -9 7 C-8.75 3.375 -8.75 3.375 -8 0 C-5.11795733 -1.44102133 -3.08226581 -0.65580124 0 0 Z " fill="#EFEFEF" transform="translate(33,72)"/>
<path d="M0 0 C2.41486943 2.41486943 2.2961925 3.12707789 2.3125 6.4375 C2.32925781 7.21996094 2.34601562 8.00242187 2.36328125 8.80859375 C1.91458387 11.51525212 1.14821158 12.34324249 -1 14 C-3.8125 15 -3.8125 15 -7 15 C-10.375 13 -10.375 13 -13 10 C-13.56374961 6.36694699 -13.83694966 4.19564238 -11.6875 1.125 C-7.68005993 -1.54662671 -4.53731093 -0.90746219 0 0 Z M-8.8125 2.0625 C-10.71126816 5.16049016 -9.80646299 7.58804119 -9 11 C-8.34 11.66 -7.68 12.32 -7 13 C-3.93008319 12.83557723 -3.93008319 12.83557723 -1 12 C0.52150158 8.95699684 0.23899393 6.345915 0 3 C-3.22565259 0.84956494 -5.2654696 -0.01679368 -8.8125 2.0625 Z " fill="#181819" transform="translate(34,70)"/>
<path d="M0 0 C2.5 0.25 2.5 0.25 4.5 2.25 C5.05186722 8.32053942 5.05186722 8.32053942 3.3125 11.25 C1.5 12.25 1.5 12.25 -1.125 12 C-3.5 11.25 -3.5 11.25 -4.5 10.25 C-4.77314815 4.51388889 -4.77314815 4.51388889 -4.5 2.25 C-2.5 0.25 -2.5 0.25 0 0 Z " fill="#ECECEC" transform="translate(95.5,70.75)"/>
<path d="M0 0 C1.98 0.99 1.98 0.99 4 2 C4 7.94 4 13.88 4 20 C2.02 20.99 2.02 20.99 0 22 C0 14.74 0 7.48 0 0 Z " fill="#E69247" transform="translate(3,61)"/>
<path d="M0 0 C0.99 0 1.98 0 3 0 C3 1.32 3 2.64 3 4 C3.99 4 4.98 4 6 4 C6 4.66 6 5.32 6 6 C5.01 6 4.02 6 3 6 C3 9.96 3 13.92 3 18 C3.99 18 4.98 18 6 18 C6 18.66 6 19.32 6 20 C1.125 19.125 1.125 19.125 0 18 C-0.07226502 16.14712498 -0.0838122 14.29166122 -0.0625 12.4375 C-0.05347656 11.42558594 -0.04445312 10.41367188 -0.03515625 9.37109375 C-0.02355469 8.58863281 -0.01195312 7.80617188 0 7 C-0.99 7 -1.98 7 -3 7 C-3 6.01 -3 5.02 -3 4 C-2.01 4 -1.02 4 0 4 C0 2.68 0 1.36 0 0 Z " fill="#3C3C3D" transform="translate(64,65)"/>
<path d="M0 0 C1.670625 0.061875 1.670625 0.061875 3.375 0.125 C3.045 1.115 2.715 2.105 2.375 3.125 C0.725 3.125 -0.925 3.125 -2.625 3.125 C-2.625 3.785 -2.625 4.445 -2.625 5.125 C-0.15 6.115 -0.15 6.115 2.375 7.125 C2.705 9.435 3.035 11.745 3.375 14.125 C0.375 16.125 0.375 16.125 -2.8125 15.75 C-4.2046875 15.440625 -4.2046875 15.440625 -5.625 15.125 C-5.295 14.465 -4.965 13.805 -4.625 13.125 C-2.975 13.125 -1.325 13.125 0.375 13.125 C0.705 12.135 1.035 11.145 1.375 10.125 C0.405625 9.815625 -0.56375 9.50625 -1.5625 9.1875 C-4.625 8.125 -4.625 8.125 -5.625 7.125 C-5.8125 4.6875 -5.8125 4.6875 -5.625 2.125 C-3.625 0.125 -3.625 0.125 0 0 Z " fill="#1F1F20" transform="translate(14.625,68.875)"/>
<path d="M0 0 C0.99 0 1.98 0 3 0 C3 7.26 3 14.52 3 22 C2.01 22 1.02 22 0 22 C0 14.74 0 7.48 0 0 Z " fill="#363638" transform="translate(40,62)"/>
<path d="M0 0 C0.99 0.495 0.99 0.495 2 1 C2.268125 1.969375 2.53625 2.93875 2.8125 3.9375 C3.69360946 7.20646204 3.69360946 7.20646204 6.625 8.375 C7.40875 8.58125 8.1925 8.7875 9 9 C8.67 10.32 8.34 11.64 8 13 C7.21625 12.979375 6.4325 12.95875 5.625 12.9375 C3.01885039 12.81315937 3.01885039 12.81315937 1 14 C-0.04976964 10.85069107 -0.10131595 8.61185544 -0.0625 5.3125 C-0.05347656 4.31863281 -0.04445313 3.32476562 -0.03515625 2.30078125 C-0.02355469 1.54152344 -0.01195312 0.78226562 0 0 Z " fill="#EBEAE9" transform="translate(7,70)"/>
<path d="M0 0 C0.33 0 0.66 0 1 0 C1 1.65 1 3.3 1 5 C-2.3 5 -5.6 5 -9 5 C-9 6.32 -9 7.64 -9 9 C-6.36 9 -3.72 9 -1 9 C-1 9.66 -1 10.32 -1 11 C-3.87470493 12.43735246 -5.81894588 12.38172649 -9 12 C-12.05661905 9.26513033 -12.93974578 7.79836847 -13.25 3.6875 C-13.1675 2.800625 -13.085 1.91375 -13 1 C-12.01 2.485 -12.01 2.485 -11 4 C-8.33346095 4.36460453 -8.33346095 4.36460453 -5.375 4.1875 C-4.37210938 4.16042969 -3.36921875 4.13335937 -2.3359375 4.10546875 C-1.56507812 4.07066406 -0.79421875 4.03585938 0 4 C0 2.68 0 1.36 0 0 Z " fill="#4D4D4E" transform="translate(85,73)"/>
<path d="M0 0 C2.17854707 3.2678206 3.49760034 6.38058265 5 10 C6.98 10 8.96 10 11 10 C11.33 9.01 11.66 8.02 12 7 C12.66 7.66 13.32 8.32 14 9 C12.21994893 11.27450971 10.94420127 12.01983955 8.1875 13 C5 13 5 13 1.625 11 C-1 8 -1 8 -1.4375 4.25 C-1 1 -1 1 0 0 Z " fill="#373738" transform="translate(22,72)"/>
<path d="M0 0 C-0.33 1.65 -0.66 3.3 -1 5 C-2.65 5.33 -4.3 5.66 -6 6 C-6.33 4.35 -6.66 2.7 -7 1 C-2.25 0 -2.25 0 0 0 Z " fill="#DEDEDF" transform="translate(56,77)"/>
<path d="M0 0 C0.928125 0.20625 1.85625 0.4125 2.8125 0.625 C0.8125 2.625 0.8125 2.625 -1.8125 2.75 C-2.59625 2.70875 -3.38 2.6675 -4.1875 2.625 C-4.5175 4.275 -4.8475 5.925 -5.1875 7.625 C-5.8475 7.295 -6.5075 6.965 -7.1875 6.625 C-6.875 4.25 -6.875 4.25 -6.1875 1.625 C-3.1875 -0.375 -3.1875 -0.375 0 0 Z " fill="#484849" transform="translate(53.1875,75.375)"/>
<path d="M0 0 C1.65 0.33 3.3 0.66 5 1 C5.33 1.99 5.66 2.98 6 4 C3.36 4 0.72 4 -2 4 C-1.34 2.68 -0.68 1.36 0 0 Z " fill="#EBEBEB" transform="translate(77,71)"/>
<path d="M0 0 C0.66 0 1.32 0 2 0 C2.1875 2.375 2.1875 2.375 2 5 C-1 7 -1 7 -4.1875 6.625 C-5.115625 6.41875 -6.04375 6.2125 -7 6 C-6.67 5.34 -6.34 4.68 -6 4 C-4.35 4 -2.7 4 -1 4 C-0.67 2.68 -0.34 1.36 0 0 Z " fill="#1A1A1B" transform="translate(16,78)"/>
<path d="M0 0 C1.4540625 0.0309375 1.4540625 0.0309375 2.9375 0.0625 C3.5975 1.3825 4.2575 2.7025 4.9375 4.0625 C3.865 3.85625 2.7925 3.65 1.6875 3.4375 C-1.93869096 3.0748809 -3.14541076 3.07887931 -6.0625 5.0625 C-3.64893617 0.07446809 -3.64893617 0.07446809 0 0 Z " fill="#222224" transform="translate(95.0625,68.9375)"/>
<path d="M0 0 C0.94875 0.350625 1.8975 0.70125 2.875 1.0625 C2.545 2.0525 2.215 3.0425 1.875 4.0625 C-0.14545442 3.46066251 -2.14611039 2.78943904 -4.125 2.0625 C-4.455 1.4025 -4.785 0.7425 -5.125 0.0625 C-3.125 -0.9375 -3.125 -0.9375 0 0 Z " fill="#424243" transform="translate(14.125,74.9375)"/>
<path d="M0 0 C1.32 0 2.64 0 4 0 C3.67 1.65 3.34 3.3 3 5 C0.03 5 -2.94 5 -6 5 C-6 4.67 -6 4.34 -6 4 C-3.36 4 -0.72 4 2 4 C1.34 2.68 0.68 1.36 0 0 Z " fill="#484849" transform="translate(81,71)"/>
</svg>
